<?xml version="1.0" encoding="UTF-8" standalone="no"?>
<!-- Generator: Adobe Illustrator 19.1.0, SVG Export Plug-In . SVG Version: 6.00 Build 0)  -->
<svg id="Layer_1" style="enable-background:new -97 220.9 400 400" xmlns="http://www.w3.org/2000/svg" xml:space="preserve" height="400px" viewBox="-97 220.9 400 400" width="400px" version="1.1" y="0px" x="0px" xmlns:xlink="http://www.w3.org/1999/xlink">
<style type="text/css">
	.st0{fill:#E95420;}
	.st1{fill:#FFFFFF;}
</style>
	<path class="st0" d="m303 420.9c0 110.4-89.5 200-200 200s-200-89.6-200-200c0-110.5 89.5-200 200-200s200 89.5 200 200z"/>
		<path class="st1" d="m-33 394.2c-14.8 0-26.7 12-26.7 26.7s12 26.7 26.7 26.7 26.7-12 26.7-26.7c0-14.8-12-26.7-26.7-26.7zm190.7 121.3c-12.8 7.4-17.1 23.7-9.8 36.5 7.4 12.8 23.7 17.2 36.5 9.8s17.1-23.7 9.8-36.5c-7.5-12.7-23.8-17.1-36.5-9.8zm-132.7-94.6c0-26.4 13.1-49.7 33.2-63.8l-19.5-32.7c-23.4 15.6-40.7 39.5-48 67.4 8.4 6.9 13.8 17.4 13.8 29.1s-5.4 22.2-13.8 29.1c7.2 27.9 24.6 51.8 48 67.4l19.5-32.7c-20.1-14.1-33.2-37.4-33.2-63.8zm78-78c40.8 0 74.2 31.2 77.7 71.1l38.1-0.6c-1.9-29.4-14.7-55.8-34.5-75.2-10.2 3.8-21.9 3.2-32-2.6-10.2-5.9-16.5-15.7-18.3-26.5-9.9-2.7-20.3-4.2-31-4.2-18.5 0-35.9 4.3-51.4 12l18.6 33.2c9.9-4.6 21.1-7.2 32.8-7.2zm0 156c-11.7 0-22.9-2.6-32.9-7.2l-18.6 33.2c15.5 7.7 33 12 51.4 12 10.7 0 21.1-1.5 31-4.2 1.7-10.7 8.1-20.6 18.3-26.5 10.1-5.9 21.9-6.4 32-2.6 19.7-19.4 32.6-45.8 34.5-75.2l-38.1-0.6c-3.4 39.8-36.8 71.1-77.6 71.1zm54.6-172.7c12.8 7.4 29.1 3 36.5-9.8s3-29.1-9.8-36.5-29.1-3-36.5 9.8c-7.3 12.8-2.9 29.1 9.8 36.5z"/>
</svg>
